<svg width="571" height="313" viewBox="0 0 571 313" fill="none" xmlns="http://www.w3.org/2000/svg">
<mask id="mask0" mask-type="alpha" maskUnits="userSpaceOnUse" x="-50" y="-120" width="621" height="433">
<path d="M128.207 -10.5538C54.7819 -28.2584 -1.17018 -32.2012 -31.5698 -31.7938C-42.0824 -31.6529 -49.8571 -22.7734 -49.669 -12.2615L-45.2717 233.547C-45.0538 245.73 -34.1674 255.267 -22.7325 251.06C38.9325 228.374 49.9096 150.303 183.159 146.597C330.894 142.489 307.27 206.513 425.561 278.241C514.428 332.127 556.507 311.93 568.723 292.305C570.221 289.9 570.729 287.05 570.729 284.217V-88.2881C570.729 -94.649 567.851 -100.742 562.428 -104.067C537.959 -119.071 492.915 -133.108 457.573 -98.3734C407.758 -49.4135 243.93 17.3499 128.207 -10.5538Z" fill="url(#paint0_radial)"/>
<path d="M128.207 -10.5538C54.7819 -28.2584 -1.17018 -32.2012 -31.5698 -31.7938C-42.0824 -31.6529 -49.8571 -22.7734 -49.669 -12.2615L-45.2717 233.547C-45.0538 245.73 -34.1674 255.267 -22.7325 251.06C38.9325 228.374 49.9096 150.303 183.159 146.597C330.894 142.489 307.27 206.513 425.561 278.241C514.428 332.127 556.507 311.93 568.723 292.305C570.221 289.9 570.729 287.05 570.729 284.217V-88.2881C570.729 -94.649 567.851 -100.742 562.428 -104.067C537.959 -119.071 492.915 -133.108 457.573 -98.3734C407.758 -49.4135 243.93 17.3499 128.207 -10.5538Z" fill="url(#paint1_angular)"/>
<path d="M128.207 -10.5538C54.7819 -28.2584 -1.17018 -32.2012 -31.5698 -31.7938C-42.0824 -31.6529 -49.8571 -22.7734 -49.669 -12.2615L-45.2717 233.547C-45.0538 245.73 -34.1674 255.267 -22.7325 251.06C38.9325 228.374 49.9096 150.303 183.159 146.597C330.894 142.489 307.27 206.513 425.561 278.241C514.428 332.127 556.507 311.93 568.723 292.305C570.221 289.9 570.729 287.05 570.729 284.217V-88.2881C570.729 -94.649 567.851 -100.742 562.428 -104.067C537.959 -119.071 492.915 -133.108 457.573 -98.3734C407.758 -49.4135 243.93 17.3499 128.207 -10.5538Z" fill="url(#paint2_radial)"/>
<path d="M128.207 -10.5538C54.7819 -28.2584 -1.17018 -32.2012 -31.5698 -31.7938C-42.0824 -31.6529 -49.8571 -22.7734 -49.669 -12.2615L-45.2717 233.547C-45.0538 245.73 -34.1674 255.267 -22.7325 251.06C38.9325 228.374 49.9096 150.303 183.159 146.597C330.894 142.489 307.27 206.513 425.561 278.241C514.428 332.127 556.507 311.93 568.723 292.305C570.221 289.9 570.729 287.05 570.729 284.217V-88.2881C570.729 -94.649 567.851 -100.742 562.428 -104.067C537.959 -119.071 492.915 -133.108 457.573 -98.3734C407.758 -49.4135 243.93 17.3499 128.207 -10.5538Z" fill="url(#paint3_radial)"/>
<path d="M128.207 -10.5538C54.7819 -28.2584 -1.17018 -32.2012 -31.5698 -31.7938C-42.0824 -31.6529 -49.8571 -22.7734 -49.669 -12.2615L-45.2717 233.547C-45.0538 245.73 -34.1674 255.267 -22.7325 251.06C38.9325 228.374 49.9096 150.303 183.159 146.597C330.894 142.489 307.27 206.513 425.561 278.241C514.428 332.127 556.507 311.93 568.723 292.305C570.221 289.9 570.729 287.05 570.729 284.217V-88.2881C570.729 -94.649 567.851 -100.742 562.428 -104.067C537.959 -119.071 492.915 -133.108 457.573 -98.3734C407.758 -49.4135 243.93 17.3499 128.207 -10.5538Z" fill="url(#paint4_radial)"/>
<path d="M128.207 -10.5538C54.7819 -28.2584 -1.17018 -32.2012 -31.5698 -31.7938C-42.0824 -31.6529 -49.8571 -22.7734 -49.669 -12.2615L-45.2717 233.547C-45.0538 245.73 -34.1674 255.267 -22.7325 251.06C38.9325 228.374 49.9096 150.303 183.159 146.597C330.894 142.489 307.27 206.513 425.561 278.241C514.428 332.127 556.507 311.93 568.723 292.305C570.221 289.9 570.729 287.05 570.729 284.217V-88.2881C570.729 -94.649 567.851 -100.742 562.428 -104.067C537.959 -119.071 492.915 -133.108 457.573 -98.3734C407.758 -49.4135 243.93 17.3499 128.207 -10.5538Z" fill="url(#paint5_radial)" fill-opacity="0.1"/>
<path d="M128.207 -10.5538C54.7819 -28.2584 -1.17018 -32.2012 -31.5698 -31.7938C-42.0824 -31.6529 -49.8571 -22.7734 -49.669 -12.2615L-45.2717 233.547C-45.0538 245.73 -34.1674 255.267 -22.7325 251.06C38.9325 228.374 49.9096 150.303 183.159 146.597C330.894 142.489 307.27 206.513 425.561 278.241C514.428 332.127 556.507 311.93 568.723 292.305C570.221 289.9 570.729 287.05 570.729 284.217V-88.2881C570.729 -94.649 567.851 -100.742 562.428 -104.067C537.959 -119.071 492.915 -133.108 457.573 -98.3734C407.758 -49.4135 243.93 17.3499 128.207 -10.5538Z" fill="url(#paint6_radial)"/>
<path d="M128.207 -10.5538C54.7819 -28.2584 -1.17018 -32.2012 -31.5698 -31.7938C-42.0824 -31.6529 -49.8571 -22.7734 -49.669 -12.2615L-45.2717 233.547C-45.0538 245.73 -34.1674 255.267 -22.7325 251.06C38.9325 228.374 49.9096 150.303 183.159 146.597C330.894 142.489 307.27 206.513 425.561 278.241C514.428 332.127 556.507 311.93 568.723 292.305C570.221 289.9 570.729 287.05 570.729 284.217V-88.2881C570.729 -94.649 567.851 -100.742 562.428 -104.067C537.959 -119.071 492.915 -133.108 457.573 -98.3734C407.758 -49.4135 243.93 17.3499 128.207 -10.5538Z" fill="url(#paint7_radial)"/>
<path d="M128.207 -10.5538C54.7819 -28.2584 -1.17018 -32.2012 -31.5698 -31.7938C-42.0824 -31.6529 -49.8571 -22.7734 -49.669 -12.2615L-45.2717 233.547C-45.0538 245.73 -34.1674 255.267 -22.7325 251.06C38.9325 228.374 49.9096 150.303 183.159 146.597C330.894 142.489 307.27 206.513 425.561 278.241C514.428 332.127 556.507 311.93 568.723 292.305C570.221 289.9 570.729 287.05 570.729 284.217V-88.2881C570.729 -94.649 567.851 -100.742 562.428 -104.067C537.959 -119.071 492.915 -133.108 457.573 -98.3734C407.758 -49.4135 243.93 17.3499 128.207 -10.5538Z" fill="url(#paint8_radial)"/>
<path d="M128.207 -10.5538C54.7819 -28.2584 -1.17018 -32.2012 -31.5698 -31.7938C-42.0824 -31.6529 -49.8571 -22.7734 -49.669 -12.2615L-45.2717 233.547C-45.0538 245.73 -34.1674 255.267 -22.7325 251.06C38.9325 228.374 49.9096 150.303 183.159 146.597C330.894 142.489 307.27 206.513 425.561 278.241C514.428 332.127 556.507 311.93 568.723 292.305C570.221 289.9 570.729 287.05 570.729 284.217V-88.2881C570.729 -94.649 567.851 -100.742 562.428 -104.067C537.959 -119.071 492.915 -133.108 457.573 -98.3734C407.758 -49.4135 243.93 17.3499 128.207 -10.5538Z" fill="url(#paint9_radial)"/>
<path d="M128.207 -10.5538C54.7819 -28.2584 -1.17018 -32.2012 -31.5698 -31.7938C-42.0824 -31.6529 -49.8571 -22.7734 -49.669 -12.2615L-45.2717 233.547C-45.0538 245.73 -34.1674 255.267 -22.7325 251.06C38.9325 228.374 49.9096 150.303 183.159 146.597C330.894 142.489 307.27 206.513 425.561 278.241C514.428 332.127 556.507 311.93 568.723 292.305C570.221 289.9 570.729 287.05 570.729 284.217V-88.2881C570.729 -94.649 567.851 -100.742 562.428 -104.067C537.959 -119.071 492.915 -133.108 457.573 -98.3734C407.758 -49.4135 243.93 17.3499 128.207 -10.5538Z" fill="url(#paint10_radial)"/>
</mask>
<g mask="url(#mask0)">
<g filter="url(#filter0_f)">
<path d="M694.498 357.615L8.54639 243.946V8.39124H723.942L694.498 357.615Z" fill="url(#paint11_radial)"/>
<path d="M694.498 357.615L8.54639 243.946V8.39124H723.942L694.498 357.615Z" fill="url(#paint12_angular)"/>
<path d="M694.498 357.615L8.54639 243.946V8.39124H723.942L694.498 357.615Z" fill="url(#paint13_radial)"/>
<path d="M694.498 357.615L8.54639 243.946V8.39124H723.942L694.498 357.615Z" fill="url(#paint14_radial)"/>
<path d="M694.498 357.615L8.54639 243.946V8.39124H723.942L694.498 357.615Z" fill="url(#paint15_radial)"/>
<path d="M694.498 357.615L8.54639 243.946V8.39124H723.942L694.498 357.615Z" fill="url(#paint16_radial)" fill-opacity="0.1"/>
<path d="M694.498 357.615L8.54639 243.946V8.39124H723.942L694.498 357.615Z" fill="url(#paint17_radial)"/>
<path d="M694.498 357.615L8.54639 243.946V8.39124H723.942L694.498 357.615Z" fill="url(#paint18_radial)"/>
<path d="M694.498 357.615L8.54639 243.946V8.39124H723.942L694.498 357.615Z" fill="url(#paint19_radial)"/>
<path d="M694.498 357.615L8.54639 243.946V8.39124H723.942L694.498 357.615Z" fill="url(#paint20_radial)"/>
<path d="M694.498 357.615L8.54639 243.946V8.39124H723.942L694.498 357.615Z" fill="url(#paint21_radial)" style="mix-blend-mode:hard-light"/>
</g>
</g>
<defs>
<filter id="filter0_f" x="0.32935" y="0.174198" width="731.83" height="365.658" filterUnits="userSpaceOnUse" color-interpolation-filters="sRGB">
<feFlood flood-opacity="0" result="BackgroundImageFix"/>
<feBlend mode="normal" in="SourceGraphic" in2="BackgroundImageFix" result="shape"/>
<feGaussianBlur stdDeviation="4.10852" result="effect1_foregroundBlur"/>
</filter>
<radialGradient id="paint0_radial" cx="0" cy="0" r="1" gradientUnits="userSpaceOnUse" gradientTransform="translate(82.5075 20.3713) rotate(82.4538) scale(272.233 245.152)">
<stop stop-color="#A960EE"/>
<stop offset="1" stop-color="#C788CB"/>
</radialGradient>
<radialGradient id="paint1_angular" cx="0" cy="0" r="1" gradientUnits="userSpaceOnUse" gradientTransform="translate(87.2236 54.7849) rotate(-87.4419) scale(85.2133 67.4992)">
<stop offset="0.495182" stop-color="#90E0FF"/>
<stop offset="1" stop-color="#A960EE" stop-opacity="0"/>
</radialGradient>
<radialGradient id="paint2_radial" cx="0" cy="0" r="1" gradientUnits="userSpaceOnUse" gradientTransform="translate(-16.8351 50.2568) rotate(97.1972) scale(264.716 172.32)">
<stop offset="0.411761" stop-color="#FFCB57"/>
<stop offset="0.719902" stop-color="#B778E1" stop-opacity="0"/>
</radialGradient>
<radialGradient id="paint3_radial" cx="0" cy="0" r="1" gradientUnits="userSpaceOnUse" gradientTransform="translate(-50 312.887) rotate(-32.6253) scale(196.53 237.341)">
<stop offset="0.192069" stop-color="#FF333D"/>
<stop offset="0.545432" stop-color="#B778E0" stop-opacity="0"/>
</radialGradient>
<radialGradient id="paint4_radial" cx="0" cy="0" r="1" gradientUnits="userSpaceOnUse" gradientTransform="translate(234.488 -43.0222) rotate(-26.1627) scale(141.287 140.085)">
<stop offset="0.317029" stop-color="#FFCB57"/>
<stop offset="1" stop-color="#EE755C" stop-opacity="0"/>
</radialGradient>
<radialGradient id="paint5_radial" cx="0" cy="0" r="1" gradientUnits="userSpaceOnUse" gradientTransform="translate(69.7283 127.687) rotate(85.5289) scale(177.589 181.16)">
<stop offset="0.507408" stop-color="#90E0FF"/>
<stop offset="1" stop-color="#A960EE" stop-opacity="0"/>
</radialGradient>
<radialGradient id="paint6_radial" cx="0" cy="0" r="1" gradientUnits="userSpaceOnUse" gradientTransform="translate(-2.51527 247.87) rotate(-137.645) scale(91.5231 82.2281)">
<stop offset="0.259592" stop-color="#A960EE"/>
<stop offset="1" stop-color="#FF333D" stop-opacity="0"/>
</radialGradient>
<radialGradient id="paint7_radial" cx="0" cy="0" r="1" gradientUnits="userSpaceOnUse" gradientTransform="translate(71.6004 126.225) rotate(86.3936) scale(210.568 126.672)">
<stop stop-color="#B8EBFF"/>
<stop offset="0.605789" stop-color="#90E0FF"/>
<stop offset="0.832381" stop-color="#A960EE" stop-opacity="0"/>
</radialGradient>
<radialGradient id="paint8_radial" cx="0" cy="0" r="1" gradientUnits="userSpaceOnUse" gradientTransform="translate(-9.13776 171.108) rotate(9.485) scale(84.0001 98.6429)">
<stop stop-color="#AFE9FF"/>
<stop offset="0.414475" stop-color="#90E0FF"/>
<stop offset="1" stop-color="#90E0FF" stop-opacity="0"/>
</radialGradient>
<radialGradient id="paint9_radial" cx="0" cy="0" r="1" gradientUnits="userSpaceOnUse" gradientTransform="translate(301.73 96.4435) rotate(162.212) scale(227.923 139.225)">
<stop offset="0.447917" stop-color="#E7555C"/>
<stop offset="0.831859" stop-color="#A960EE" stop-opacity="0"/>
</radialGradient>
<radialGradient id="paint10_radial" cx="0" cy="0" r="1" gradientUnits="userSpaceOnUse" gradientTransform="translate(303.404 -50.2672) rotate(80.5815) scale(292.841 563.078)">
<stop offset="0.166667" stop-color="#EE755C"/>
<stop offset="0.483429" stop-color="#90E0FF" stop-opacity="0"/>
</radialGradient>
<radialGradient id="paint11_radial" cx="0" cy="0" r="1" gradientUnits="userSpaceOnUse" gradientTransform="translate(161.263 121.633) rotate(79.2834) scale(221.582 280.038)">
<stop stop-color="#A960EE"/>
<stop offset="1" stop-color="#C788CB"/>
</radialGradient>
<radialGradient id="paint12_angular" cx="0" cy="0" r="1" gradientUnits="userSpaceOnUse" gradientTransform="translate(166.698 149.396) rotate(-86.348) scale(68.8156 77.7129)">
<stop offset="0.495182" stop-color="#90E0FF"/>
<stop offset="1" stop-color="#A960EE" stop-opacity="0"/>
</radialGradient>
<radialGradient id="paint13_radial" cx="0" cy="0" r="1" gradientUnits="userSpaceOnUse" gradientTransform="translate(46.7692 145.743) rotate(100.226) scale(215.293 196.997)">
<stop offset="0.411761" stop-color="#FFCB57"/>
<stop offset="0.719902" stop-color="#B778E1" stop-opacity="0"/>
</radialGradient>
<radialGradient id="paint14_radial" cx="0" cy="0" r="1" gradientUnits="userSpaceOnUse" gradientTransform="translate(8.5464 357.615) rotate(-24.1367) scale(209.04 207.466)">
<stop offset="0.192069" stop-color="#FF333D"/>
<stop offset="0.545432" stop-color="#B778E0" stop-opacity="0"/>
</radialGradient>
<radialGradient id="paint15_radial" cx="0" cy="0" r="1" gradientUnits="userSpaceOnUse" gradientTransform="translate(336.421 70.4918) rotate(-18.9764) scale(154.551 119.068)">
<stop offset="0.317029" stop-color="#FFCB57"/>
<stop offset="1" stop-color="#EE755C" stop-opacity="0"/>
</radialGradient>
<radialGradient id="paint16_radial" cx="0" cy="0" r="1" gradientUnits="userSpaceOnUse" gradientTransform="translate(146.534 208.209) rotate(83.626) scale(143.72 208.131)">
<stop offset="0.507408" stop-color="#90E0FF"/>
<stop offset="1" stop-color="#A960EE" stop-opacity="0"/>
</radialGradient>
<radialGradient id="paint17_radial" cx="0" cy="0" r="1" gradientUnits="userSpaceOnUse" gradientTransform="translate(63.273 305.164) rotate(-147.455) scale(92.469 75.6709)">
<stop offset="0.259592" stop-color="#A960EE"/>
<stop offset="1" stop-color="#FF333D" stop-opacity="0"/>
</radialGradient>
<radialGradient id="paint18_radial" cx="0" cy="0" r="1" gradientUnits="userSpaceOnUse" gradientTransform="translate(148.692 207.029) rotate(84.855) scale(170.222 145.69)">
<stop stop-color="#B8EBFF"/>
<stop offset="0.605789" stop-color="#90E0FF"/>
<stop offset="0.832381" stop-color="#A960EE" stop-opacity="0"/>
</radialGradient>
<radialGradient id="paint19_radial" cx="0" cy="0" r="1" gradientUnits="userSpaceOnUse" gradientTransform="translate(55.6405 243.238) rotate(6.67032) scale(96.1382 80.1354)">
<stop stop-color="#AFE9FF"/>
<stop offset="0.414475" stop-color="#90E0FF"/>
<stop offset="1" stop-color="#90E0FF" stop-opacity="0"/>
</radialGradient>
<radialGradient id="paint20_radial" cx="0" cy="0" r="1" gradientUnits="userSpaceOnUse" gradientTransform="translate(413.919 183.003) rotate(167.342) scale(256.355 115.09)">
<stop offset="0.447917" stop-color="#E7555C"/>
<stop offset="0.831859" stop-color="#A960EE" stop-opacity="0"/>
</radialGradient>
<radialGradient id="paint21_radial" cx="0" cy="0" r="1" gradientUnits="userSpaceOnUse" gradientTransform="translate(415.848 64.647) rotate(76.668) scale(239.514 640.093)">
<stop offset="0.166667" stop-color="#EE755C"/>
<stop offset="0.483429" stop-color="#90E0FF" stop-opacity="0"/>
</radialGradient>
</defs>
</svg>
